HIERARCHY
ROOT hip
{
  OFFSET 0 0 0
  CHANNELS 6 Xposition Yposition Zposition Zrotation Yrotation Xrotation
  JOINT abdomen
  {
    OFFSET 0 20.6881 -0.73152
    CHANNELS 3 Zrotation Xrotation Yrotation
    JOINT chest
    {
      OFFSET 0 11.7043 -0.48768
      CHANNELS 3 Zrotation Xrotation Yrotation
      JOINT neck
      {
        OFFSET 0 22.1894 -2.19456
        CHANNELS 3 Zrotation Xrotation Yrotation
        JOINT head
        {
          OFFSET -0.24384 7.07133 1.2192
          CHANNELS 3 Zrotation Xrotation Yrotation
          JOINT leftEye
          {
            OFFSET 4.14528 8.04674 8.04672
            CHANNELS 3 Zrotation Xrotation Yrotation
            End Site
            {
              OFFSET 1 0 0
            }
          }
          JOINT rightEye
          {
            OFFSET -3.6576 8.04674 8.04672
            CHANNELS 3 Zrotation Xrotation Yrotation
            End Site
            {
              OFFSET 1 0 0
            }
          }
        }
      }
      JOINT rCollar
      {
        OFFSET -2.68224 19.2634 -4.8768
        CHANNELS 3 Zrotation Xrotation Yrotation
        JOINT rShldr
        {
          OFFSET -8.77824 -1.95073 1.46304
          CHANNELS 3 Zrotation Xrotation Yrotation
          JOINT rForeArm
          {
            OFFSET -28.1742 -1.7115 0.48768
            CHANNELS 3 Zrotation Xrotation Yrotation
            JOINT rHand
            {
              OFFSET -22.5879 0.773209 7.07136
              CHANNELS 3 Zrotation Xrotation Yrotation
              JOINT rThumb1
              {
                OFFSET -1.2192 -0.487915 3.41376
                CHANNELS 3 Zrotation Xrotation Yrotation
                JOINT rThumb2
                {
                  OFFSET -3.37035 -0.52449 3.41376
                  CHANNELS 3 Zrotation Xrotation Yrotation
                  End Site
                  {
                    OFFSET -1.78271 -1.18214 1.43049
                  }
                }
              }
              JOINT rIndex1
              {
                OFFSET -7.75947 0.938293 5.60832
                CHANNELS 3 Zrotation Xrotation Yrotation
                JOINT rIndex2
                {
                  OFFSET -2.54057 -0.884171 1.56538
                  CHANNELS 3 Zrotation Xrotation Yrotation
                  End Site
                  {
                    OFFSET -1.62519 -0.234802 1.16502
                  }
                }
              }
              JOINT rMid1
              {
                OFFSET -8.24714 1.18213 3.41376
                CHANNELS 3 Zrotation Xrotation Yrotation
                JOINT rMid2
                {
                  OFFSET -3.10165 -0.590103 1.0647
                  CHANNELS 3 Zrotation Xrotation Yrotation
                  End Site
                  {
                    OFFSET -2.48547 -0.328903 0.83742
                  }
                }
              }
              JOINT rRing1
              {
                OFFSET -8.82822 0.546677 1.51678
                CHANNELS 3 Zrotation Xrotation Yrotation
                JOINT rRing2
                {
                  OFFSET -2.60934 -0.819778 -0.0198488
                  CHANNELS 3 Zrotation Xrotation Yrotation
                  End Site
                  {
                    OFFSET -2.33842 -0.294052 0.168128
                  }
                }
              }
              JOINT rPinky1
              {
                OFFSET -8.27202 -0.0477905 -0.4584
                CHANNELS 3 Zrotation Xrotation Yrotation
                JOINT rPinky2
                {
                  OFFSET -1.82734 -0.647385 -0.700984
                  CHANNELS 3 Zrotation Xrotation Yrotation
                  End Site
                  {
                    OFFSET -1.69225 -0.51767 -0.607171
                  }
                }
              }
            }
          }
        }
      }
      JOINT lCollar
      {
        OFFSET 2.68224 19.2634 -4.8768
        CHANNELS 3 Zrotation Xrotation Yrotation
        JOINT lShldr
        {
          OFFSET 8.77824 -1.95073 1.46304
          CHANNELS 3 Zrotation Xrotation Yrotation
          JOINT lForeArm
          {
            OFFSET 28.1742 -1.7115 0.48768
            CHANNELS 3 Zrotation Xrotation Yrotation
            JOINT lHand
            {
              OFFSET 22.5879 0.773209 7.07136
              CHANNELS 3 Zrotation Xrotation Yrotation
              JOINT lThumb1
              {
                OFFSET 1.2192 -0.487915 3.41376
                CHANNELS 3 Zrotation Xrotation Yrotation
                JOINT lThumb2
                {
                  OFFSET 3.37035 -0.52449 3.41376
                  CHANNELS 3 Zrotation Xrotation Yrotation
                  End Site
                  {
                    OFFSET 1.78271 -1.18214 1.43049
                  }
                }
              }
              JOINT lIndex1
              {
                OFFSET 7.75947 0.938293 5.60832
                CHANNELS 3 Zrotation Xrotation Yrotation
                JOINT lIndex2
                {
                  OFFSET 2.54057 -0.884171 1.56538
                  CHANNELS 3 Zrotation Xrotation Yrotation
                  End Site
                  {
                    OFFSET 1.62519 -0.234802 1.16502
                  }
                }
              }
              JOINT lMid1
              {
                OFFSET 8.24714 1.18213 3.41376
                CHANNELS 3 Zrotation Xrotation Yrotation
                JOINT lMid2
                {
                  OFFSET 3.10165 -0.590103 1.0647
                  CHANNELS 3 Zrotation Xrotation Yrotation
                  End Site
                  {
                    OFFSET 2.48547 -0.328903 0.83742
                  }
                }
              }
              JOINT lRing1
              {
                OFFSET 8.82822 0.546677 1.51678
                CHANNELS 3 Zrotation Xrotation Yrotation
                JOINT lRing2
                {
                  OFFSET 2.60934 -0.819778 -0.0198488
                  CHANNELS 3 Zrotation Xrotation Yrotation
                  End Site
                  {
                    OFFSET 2.33842 -0.294052 0.168128
                  }
                }
              }
              JOINT lPinky1
              {
                OFFSET 8.27202 -0.0477905 -0.4584
                CHANNELS 3 Zrotation Xrotation Yrotation
                JOINT lPinky2
                {
                  OFFSET 1.82734 -0.647385 -0.700984
                  CHANNELS 3 Zrotation Xrotation Yrotation
                  End Site
                  {
                    OFFSET 1.69225 -0.51767 -0.607171
                  }
                }
              }
            }
          }
        }
      }
    }
  }
  JOINT rButtock
  {
    OFFSET -8.77824 4.35084 1.2192
    CHANNELS 3 Zrotation Xrotation Yrotation
    JOINT rThigh
    {
      OFFSET 0 -1.70687 -2.19456
      CHANNELS 3 Zrotation Xrotation Yrotation
      JOINT rShin
      {
        OFFSET 0 -36.8199 0.73152
        CHANNELS 3 Zrotation Xrotation Yrotation
        JOINT rFoot
        {
          OFFSET 0.73152 -45.1104 -5.12064
          CHANNELS 3 Zrotation Xrotation Yrotation
          End Site
          {
            OFFSET -1.1221 -3.69964 12.103
          }
        }
      }
    }
  }
  JOINT lButtock
  {
    OFFSET 8.77824 4.35084 1.2192
    CHANNELS 3 Zrotation Xrotation Yrotation
    JOINT lThigh
    {
      OFFSET 0 -1.70687 -2.19456
      CHANNELS 3 Zrotation Xrotation Yrotation
      JOINT lShin
      {
        OFFSET 0 -36.8199 0.73152
        CHANNELS 3 Zrotation Xrotation Yrotation
        JOINT lFoot
        {
          OFFSET -0.73152 -45.1104 -5.12064
          CHANNELS 3 Zrotation Xrotation Yrotation
          End Site
          {
            OFFSET 1.1221 -3.69964 12.103
          }
        }
      }
    }
  }
}
MOTION
Frames:	7
Frame Time:	0.03333
0.0 0.0 0.0 0.0 0.0 0.0 0.0 0.0 0.0 0.0 0.0 0.0 0.0 0.0 0.0 0.0 0.0 0.0 0.0 0.0 0.0 0.0 0.0 0.0 0.0 0.0 0.0 0.0 0.0 0.0 0.0 0.0 0.0 0.0 0.0 0.0 0.0 0.0 0.0 0.0 0.0 0.0 0.0 0.0 0.0 0.0 0.0 0.0 0.0 0.0 0.0 0.0 0.0 0.0 0.0 0.0 0.0 0.0 0.0 0.0 0.0 0.0 0.0 0.0 0.0 0.0 0.0 0.0 0.0 0.0 0.0 0.0 0.0 0.0 0.0 0.0 0.0 0.0 0.0 0.0 0.0 0.0 0.0 0.0 0.0 0.0 0.0 0.0 0.0 0.0 0.0 0.0 0.0 0.0 0.0 0.0 0.0 0.0 0.0 0.0 0.0 0.0 0.0 0.0 0.0 0.0 0.0 0.0 0.0 0.0 0.0 0.0 0.0 0.0 0.0 0.0 0.0 0.0 0.0 0.0 0.0 0.0 0.0 0.0 0.0 0.0 0.0 0.0 0.0 0.0 0.0 0.0
5.2838 0.41869999999999996 -0.6326 76.312453 -23.476546 -15.397864 -106.132734 -3.67742 -83.648902 -175.25806 -52.659967 -163.744393 -36.982543 -6.730886 -8.500613 86.308034 -75.98244 -111.109085 -44.439188 2.666336 -6.521403 -57.685984 16.961386 -30.298421 -12.364701 10.191242 66.73152 -159.606129 -12.245114 32.258699 -114.41571 -64.303757 54.733571 -38.462502 42.403981 -145.190003 136.069978 -37.565305 -70.393915 -105.697092 50.848879 -119.062902 49.959614 -72.878094 -22.184904 -117.01936 -48.604715 -95.67684 -26.711377 43.715833 -128.910747 128.82696 -73.734624 -112.790751 51.169789 -23.091062 29.114311 -161.625988 3.624872 31.584813 -16.326079 -43.213965 -159.994882 93.991132 -0.178856 98.670804 74.172121 -19.500891 -133.83867 73.980728 -26.237712 -143.482402 46.971153 -85.291934 -46.072072 -50.112091 -17.986885 160.427002 -143.160939 -74.650563 142.625451 -28.515592 -42.487856 -176.578127 -49.634165 56.380207 102.122415 -50.418729 -61.685037 112.385034 -2.582335 53.599107 178.079114 -24.609247 22.984284 -146.828014 104.592838 0.979694 17.970459 -32.151588 -41.302153 165.168852 -1.234952 -15.497818 -167.149544 95.46885 -66.748423 -163.554792 -164.253627 15.017976 91.675184 151.954553 18.596984 -35.207582 43.183368 -39.567209 -29.496117 -138.237478 -1.193411 29.168987 4.713886 26.855245 92.880229 58.082236 9.18423 -84.322491 -168.033525 30.546609 79.814035 -76.322969 60.284095 -56.997099
7.7120999999999995 0.6192 -0.9759 79.974932 -28.071407 -19.926972 -112.357938 -11.156661 41.246143 -128.833814 39.478121 -44.747374 -21.914973 11.187738 -169.525356 128.621767 70.387071 -141.609763 -42.173189 0.052148 -0.13524 -58.484491 13.71592 -24.248453 -103.445349 11.04775 102.121251 -121.07415 24.717927 -18.238434 -8.031866 64.790773 148.717514 -167.134286 7.872015 -22.777624 -67.157777 76.679402 -177.966367 171.387503 64.081711 -45.978269 -92.321868 41.100006 108.592443 148.965526 -24.280638 -1.941927 -59.056254 47.557269 -107.724803 52.60679 72.721487 144.73081 -91.180603 16.700414 143.626117 -165.470482 11.670433 -39.552054 20.149097 -76.784553 -111.949444 47.316617 -31.609182 134.495768 73.226475 -20.834653 -132.660872 67.101766 -28.022659 -157.470276 100.276262 -82.4356 14.020839 -49.627419 -28.562188 150.817565 -152.34381 -72.125481 123.891055 -129.263371 -21.413712 60.228598 -53.377925 51.612562 109.580309 98.809085 79.336107 162.7687 -9.58054 14.734688 -175.442277 -29.266486 1.101232 -157.835159 -102.426274 5.883236 159.997336 -29.369442 11.908804 -167.882428 -120.026641 13.691131 -78.18589 -165.152228 -28.665328 65.248729 88.059743 2.987694 -82.780937 -41.539709 -50.766776 -48.83747 30.326704 -56.224411 63.085923 -179.269043 10.69623 157.445677 2.649254 18.305422 86.633883 71.826285 22.731118 -47.57901 152.884079 28.597902 -81.000805 60.778971 -15.201823 109.705102
10.0693 0.761 -1.3304 82.085746 -31.135237 -23.34429 -111.627519 -16.339143 40.075039 -128.085749 42.246595 -40.234826 -25.956903 -4.53967 -71.98203 84.723706 -28.098809 -116.764799 -39.63294 -1.96873 5.459832 -57.113588 11.377418 -20.744498 -103.41615 16.827212 100.392304 -133.118884 -8.08883 -21.138855 -4.857357 -70.342982 179.637528 -13.577889 -1.02737 -166.0649 173.740777 53.458605 -66.801436 -177.961243 66.621378 -67.305566 7.669322 49.166782 8.688894 21.636655 -55.193345 -113.523196 -20.947634 47.2124 -127.500461 38.478868 31.628709 174.1125 -99.145064 7.132186 155.43511 -47.413839 57.468069 -124.066843 36.829517 -73.184638 -96.390971 151.282978 16.875608 118.021178 -76.341642 15.267973 -40.735232 -76.834934 25.355608 143.159417 -131.13911 19.404047 61.595983 -20.20144 14.206472 -179.635836 17.762536 82.929167 162.16389 96.402792 35.016881 95.226425 -100.155736 48.113276 139.047185 -154.958975 -56.076384 28.825719 -168.212435 6.225486 32.710852 3.084056 9.96215 163.302467 121.051377 -9.655971 24.422931 171.580862 63.850704 -0.87192 -72.821339 23.719277 -109.55104 -88.89004 -16.788986 71.668525 88.505737 -1.928565 -79.431294 -59.852574 -45.801427 0.0 -52.503295 -35.615531 -88.958065 -121.462832 -54.812681 154.889557 2.276606 26.623586 91.137146 67.26176 25.194956 -0.0 149.756949 6.531625 89.769839 -93.007654 -6.113032 -30.733364
12.3952 0.8647999999999999 -1.701 83.434446 -33.638912 -26.104808 -109.604634 -23.484324 151.016623 118.673844 18.035092 107.334905 -3.233603 -7.158294 104.430117 -88.051394 25.449747 83.739804 -37.001322 -3.07695 9.178215 -55.12693 9.96151 -18.957594 -28.738764 14.827838 55.156817 -148.293755 5.8283 21.67125 -174.054157 -31.321352 7.555027 -13.971158 0.553 -166.381421 177.405046 53.070396 -69.517253 102.688704 -23.252718 -107.603988 -101.28881 40.373481 124.662689 -114.604669 -63.366088 70.021301 -21.817265 52.700615 -124.372997 -145.974249 10.413255 -31.909728 44.222669 -10.956059 13.994845 107.547547 47.603099 99.282619 136.931619 -6.182964 18.250311 -123.291627 75.874329 16.66356 -97.054557 -4.107964 -34.919881 94.576655 1.396151 7.285579 42.890477 -78.795971 -39.711407 -44.408799 -35.264242 146.558342 47.919219 83.096937 132.650225 81.108678 44.37052 96.291466 -165.98832 15.999941 159.462408 171.287906 21.414452 4.130782 -7.923978 -1.518428 -176.81744 -127.256602 -81.476121 93.084112 -100.185223 1.688942 160.892253 167.781464 9.664194 -0.632578 -139.571702 -5.364356 -70.042986 156.920576 -52.698327 46.439466 146.790803 -45.126526 7.707086 -136.06133 5.47405 -0.0 -38.79002 -46.09026 28.635344 29.506299 8.611857 152.917807 -53.146264 -35.186586 -0.0 -119.556721 64.779355 117.15885 -145.70258 4.644194 -29.439359 -174.117312 19.430301 37.696084
14.7146 0.9439 -2.0934 84.361561 -35.817899 -28.372973 -107.923861 -25.517359 150.362504 117.882461 18.113443 106.847398 -21.812044 -8.035914 -94.961164 84.724394 -7.249755 -115.976931 -34.16307 -3.569125 11.579128 -53.040058 8.907741 -17.743402 -116.372476 17.049609 104.827434 131.612168 -57.27845 -97.345946 -8.566265 37.449712 -165.599696 -20.092972 17.8066 -162.299975 -11.584988 2.826881 154.87924 173.778943 1.346755 -80.122715 6.501897 62.500526 10.989531 128.008091 57.655858 -72.754935 173.190543 -31.745956 -84.716335 156.92063 2.830139 -29.072154 21.397233 -81.541451 -36.115535 -23.475408 -42.100022 154.855656 138.778092 -11.766001 13.757037 -149.096077 -26.435198 -4.817976 -4.541548 30.21305 -92.249218 83.223906 10.211873 101.93608 157.574197 59.157084 -42.553168 -162.030594 37.288409 14.479076 81.15256 81.246981 97.965243 139.818375 10.110225 99.558572 175.8259 2.557426 158.567059 -47.739643 -14.164061 -126.549894 -164.83885 -10.7555 38.22869 -10.497631 3.665359 160.791542 -97.796054 19.995303 168.455096 -24.673637 -23.165167 -174.597002 36.409484 -41.204041 -153.926413 -98.436584 -16.722678 -73.66978 89.141965 10.153133 -89.848735 -51.599156 -53.348414 -180.0 41.991918 40.773314 -155.584287 161.842931 2.125485 -144.415261 2.568091 37.070003 94.797077 62.727742 32.844934 21.366998 145.792961 -3.04753 149.678614 86.677018 -67.420108 17.200154
17.0409 1.0061 -2.512 85.039966 -37.729832 -30.249342 -105.855971 -27.022688 164.373456 116.476667 5.746104 112.14694 -2.129419 -16.740372 78.362257 -80.385225 -2.465231 84.626508 -31.116787 -3.682067 13.170996 -51.006368 7.935617 -16.545682 90.10953 -50.169775 72.615802 151.105258 14.624692 -3.67618 -19.831071 81.554245 -149.570793 -14.823238 5.123159 -166.339733 -2.94441 -15.252801 158.313777 -19.77881 70.82094 -160.964592 -104.823366 -43.967878 164.506564 -172.301795 39.48285 35.154836 11.107139 51.380758 -144.828073 -76.045923 72.189493 -85.043897 43.160092 -4.757108 9.156446 169.197004 38.154176 50.195723 -1.549647 16.113533 -159.732565 -16.805013 -8.937065 157.223132 -63.853659 20.513542 -52.620348 -126.81268 -23.276283 124.070659 126.209388 -67.528302 -105.966001 -161.408677 27.673959 17.466777 119.71816 62.561791 61.562345 109.998548 39.618716 76.393262 -49.392494 55.853709 106.915877 -167.907013 68.66416 65.912513 -161.45143 -21.423415 42.6001 4.456097 26.639184 158.593872 -102.536899 4.422066 165.950543 169.696073 19.595515 -2.496395 -130.223343 5.010645 -73.184154 -68.260146 43.612169 129.275942 -164.749134 6.730402 87.590586 138.923256 3.639495 -180.0 -8.54745 47.425704 46.465496 -79.57287 -32.458233 15.281213 -8.498291 61.293152 122.23777 45.530397 20.208834 -180.0 -148.197961 3.590666 -80.623105 104.695882 -19.726888 16.717203
